<?xml version="1.0" encoding="UTF-8" standalone="no"?>
<svg width="47px" height="47px" viewBox="0 0 47 47" version="1.1" xmlns="http://www.w3.org/2000/svg" xmlns:xlink="http://www.w3.org/1999/xlink">
    <!-- Generator: Sketch 3.8.3 (29802) - http://www.bohemiancoding.com/sketch -->
    <title>Contacts Copy</title>
    <desc>Created with Sketch.</desc>
    <defs></defs>
    <g id="Desktop" stroke="none" stroke-width="1" fill="none" fill-rule="evenodd">
        <g id="Search" transform="translate(-1138.000000, -74.000000)">
            <g id="Contacts-Copy" transform="translate(1139.000000, 75.000000)">
                <path d="M22.78125,44.046875 C34.9315145,44.046875 44.78125,34.1971395 44.78125,22.046875 C44.78125,9.8966105 34.9315145,0.046875 22.78125,0.046875 C10.6309855,0.046875 0.78125,9.8966105 0.78125,22.046875 C0.78125,34.1971395 10.6309855,44.046875 22.78125,44.046875 Z" id="Circle" stroke="#E4E4E4" stroke-width="2" fill="#FFFFFF"></path>
                <path d="M23.6484346,16.6017705 C24.2173811,19.9426334 21.2610005,22.7897581 17.7922622,22.2420635 C15.6915956,21.9101946 13.9969915,20.2781979 13.6528707,18.255202 C13.0839242,14.9143391 16.0403047,12.0664752 19.509043,12.6149089 C21.6097097,12.9467778 23.303549,14.5780354 23.6484346,16.6017705 Z M27.4842351,28.3324861 L27.4582348,28.2408341 C26.8204642,26.0094038 25.5930998,24.0011905 23.9329078,22.3691937 C23.7310236,22.1711072 23.3891969,22.1784985 23.1911362,22.3788024 C21.8444765,23.7410171 19.8095752,24.497146 17.6018487,24.1586249 C16.2360712,23.9487123 15.0125304,23.2997571 14.1032866,22.3780633 C13.9067554,22.1784985 13.5649287,22.1762811 13.3653386,22.3721502 C11.7059113,24.0034078 10.480841,26.0108821 9.84230567,28.2408341 L9.81707014,28.3324861 C9.64118615,28.945224 10.1351908,29.546875 10.8134912,29.546875 L26.4885787,29.546875 C27.1661145,29.546875 27.6601191,28.945224 27.4842351,28.3324861 Z M35.7454299,28.3324861 L35.7194296,28.2408341 C35.0808942,26.0094038 33.8542946,24.0011905 32.1941026,22.3691937 C31.9922183,22.1711072 31.6503916,22.1784985 31.452331,22.3788024 C30.4505569,23.3914091 29.0679558,24.0677121 27.5171177,24.2096248 C28.4691855,25.6339263 29.2086629,27.1927493 29.6835497,28.8528329 L29.7164324,28.968137 C29.7737859,29.1662236 29.7730212,29.3628319 29.7294325,29.546875 L34.7490088,29.546875 C35.4273092,29.546875 35.9213139,28.945224 35.7454299,28.3324861 Z M31.9738652,16.6017705 C31.6289797,14.5780354 29.9343756,12.9467778 27.8344736,12.6149089 C26.9550537,12.4759527 26.1100458,12.557996 25.3468622,12.8092998 C24.8735048,12.965256 24.6830913,13.4966898 24.9446231,13.9054281 C25.6022763,14.9313391 25.9831034,16.1368584 25.9831034,17.4288558 C25.9831034,18.7223315 25.6015116,19.929329 24.942329,20.9559792 C24.678503,21.3661957 24.8742695,21.8939338 25.3491563,22.0528465 C25.5969233,22.1363681 25.8531022,22.2006723 26.1169282,22.2420635 C29.5864312,22.7897581 32.5428117,19.9426334 31.9738652,16.6017705 Z" id="Icon" fill="#358ED7"></path>
            </g>
        </g>
    </g>
</svg>