<?xml version="1.0" encoding="UTF-8" standalone="no"?>
<svg width="11px" height="21px" viewBox="0 0 11 21" version="1.1" xmlns="http://www.w3.org/2000/svg" xmlns:xlink="http://www.w3.org/1999/xlink">
    <!-- Generator: Sketch 3.8.3 (29802) - http://www.bohemiancoding.com/sketch -->
    <title>Clip</title>
    <desc>Created with Sketch.</desc>
    <defs></defs>
    <g id="Desktop" stroke="none" stroke-width="1" fill="none" fill-rule="evenodd">
        <g id="Team-discussion" transform="translate(-272.000000, -712.000000)" fill="#BDC6CF">
            <path d="M281.109197,727.298828 C281.109197,729.347943 279.449506,731.007635 277.400391,731.007635 C275.351275,731.007635 273.691584,729.347943 273.691584,727.298828 L273.691584,715.708807 C273.691584,714.429268 274.73005,713.390803 276.009588,713.390803 C277.289126,713.390803 278.327592,714.429268 278.327592,715.708807 L278.327592,725.444425 C278.327592,725.954386 277.914988,726.371626 277.400391,726.371626 C276.885794,726.371626 276.473189,725.954386 276.473189,725.444425 L276.473189,716.636009 L275.082386,716.636009 L275.082386,725.444425 C275.082386,726.723963 276.120852,727.762429 277.400391,727.762429 C278.679929,727.762429 279.718395,726.723963 279.718395,725.444425 L279.718395,715.708807 C279.718395,713.659691 278.058704,712 276.009588,712 C273.960472,712 272.300781,713.659691 272.300781,715.708807 L272.300781,727.298828 C272.300781,730.117522 274.586333,732.398438 277.400391,732.398438 C280.214448,732.398438 282.5,730.117522 282.5,727.298828 L282.5,716.636009 L281.109197,716.636009 L281.109197,727.298828 Z" id="Clip"></path>
        </g>
    </g>
</svg>