<?xml version="1.0" encoding="UTF-8" standalone="no"?>
<svg width="47px" height="47px" viewBox="0 0 47 47" version="1.1" xmlns="http://www.w3.org/2000/svg" xmlns:xlink="http://www.w3.org/1999/xlink">
    <!-- Generator: Sketch 3.8.3 (29802) - http://www.bohemiancoding.com/sketch -->
    <title>Audio</title>
    <desc>Created with Sketch.</desc>
    <defs></defs>
    <g id="Desktop" stroke="none" stroke-width="1" fill="none" fill-rule="evenodd">
        <g id="Team-discussion" transform="translate(-1052.000000, -699.000000)">
            <g id="Group-5" transform="translate(944.000000, 700.000000)">
                <g id="Audio" transform="translate(109.000000, 0.449219)">
                    <path d="M22.78125,44.046875 C34.9315145,44.046875 44.78125,34.1971395 44.78125,22.046875 C44.78125,9.8966105 34.9315145,0.046875 22.78125,0.046875 C10.6309855,0.046875 0.78125,9.8966105 0.78125,22.046875 C0.78125,34.1971395 10.6309855,44.046875 22.78125,44.046875 Z" id="Circle" stroke="#E4E4E4" stroke-width="2" fill="#FFFFFF"></path>
                    <g id="Group-4" transform="translate(14.281250, 11.046875)" fill="#BDC6CF">
                        <path d="M8.80945312,14.96 C11.0534531,14.96 12.8894531,13.124 12.8894531,10.88 L12.8894531,4.08 C12.8894531,1.836 11.0534531,0 8.80945312,0 C6.56545312,0 4.72945312,1.836 4.72945312,4.08 L4.72945312,10.88 C4.72945312,13.124 6.56545312,14.96 8.80945312,14.96 L8.80945312,14.96 Z" id="Fill-1"></path>
                        <path d="M14.2494531,8.84 L14.2494531,10.88 C14.2494531,13.872 11.8014531,16.32 8.80945313,16.32 C5.81745313,16.32 3.36945313,13.872 3.36945313,10.88 L3.36945313,8.84 L0.649453125,8.84 L0.649453125,10.88 C0.649453125,14.892 3.57345313,18.292 7.44945313,18.9039993 L7.44945313,21.76 L10.1694531,21.76 L10.1694531,18.9039993 C14.0454531,18.2239993 16.9694531,14.892 16.9694531,10.88 L16.9694531,8.84 L14.2494531,8.84 L14.2494531,8.84 Z" id="Fill-3"></path>
                    </g>
                </g>
            </g>
        </g>
    </g>
</svg>